<svg id="Icon_-_Regular_-_Communication_-_Email" data-name="Icon - Regular - Communication - Email" xmlns="http://www.w3.org/2000/svg" width="65" height="65" viewBox="0 0 65 65">
  <rect id="Retângulo_12" data-name="Retângulo 12" width="65" height="65" fill="none"/>
  <path id="Caminho_15" data-name="Caminho 15" d="M51.25,13a1.95,1.95,0,0,1,1.95,1.95h0v35.1A1.95,1.95,0,0,1,51.25,52H4.45A1.95,1.95,0,0,1,2.5,50.05h0V14.95A1.95,1.95,0,0,1,4.45,13h46.8Zm-.836,2.786H5.286V49.214H50.414Zm.528-2.3,1.73,1.815L29.111,37.764a1.84,1.84,0,0,1-2.443.069l-.084-.075L3.028,15.3l1.73-1.815L27.849,35.5Z" transform="translate(4.5)"/>
</svg>
