<svg id="Icon_Regular_Communication_Message" data-name="Icon / Regular / Communication / Message" xmlns="http://www.w3.org/2000/svg" width="65" height="65" viewBox="0 0 65 65">
  <rect id="Container" width="65" height="65" fill="rgba(255,255,255,0)"/>
  <path id="Icon_Regular_Communication_Message-2" data-name="Icon / Regular / Communication / Message" d="M9.849,56.07A1.687,1.687,0,0,1,8.8,54.5V44.011H7.108A7.117,7.117,0,0,1,0,36.9V7.11A7.117,7.117,0,0,1,7.108,0H50.442a7.118,7.118,0,0,1,7.11,7.11V36.9a7.118,7.118,0,0,1-7.11,7.11H23.3L11.695,55.7a1.689,1.689,0,0,1-1.846.374ZM3.386,7.11V36.9a3.728,3.728,0,0,0,3.723,3.725h3.386a1.694,1.694,0,0,1,1.693,1.692V50.4l9.205-9.272a1.705,1.705,0,0,1,1.2-.5H50.442A3.729,3.729,0,0,0,54.166,36.9V7.11a3.729,3.729,0,0,0-3.725-3.725H7.108A3.728,3.728,0,0,0,3.386,7.11ZM38.255,22.005a3.385,3.385,0,1,1,3.385,3.386A3.385,3.385,0,0,1,38.255,22.005Zm-12.865,0a3.385,3.385,0,1,1,3.385,3.386A3.385,3.385,0,0,1,25.39,22.005Zm-12.865,0a3.385,3.385,0,1,1,3.385,3.386A3.385,3.385,0,0,1,12.526,22.005Z" transform="translate(3.725 4.401)"/>
</svg>
