<svg id="Help" xmlns="http://www.w3.org/2000/svg" width="65" height="65.068" viewBox="0 0 65 65.068">
  <rect id="Container" width="65" height="65" fill="rgba(255,255,255,0)"/>
  <g id="Icon_Regular_Information_Help" data-name="Icon / Regular / Information / Help" transform="translate(1.354 1.354)" stroke-linecap="square" stroke-linejoin="round">
    <path d="M0,62.713l.449-1.335L5.162,47.31a31.4,31.4,0,0,1-4.781-16.5A30.815,30.815,0,0,1,59.574,18.816a30.8,30.8,0,0,1-28.386,42.8,29.854,29.854,0,0,1-8.216-1.165,32.759,32.759,0,0,1-7.527-3.235c-.132,0-10.655,3.778-15.173,5.4l-.271.1H0Zm16.42-8.885a28.385,28.385,0,0,0,14.768,4.4A27.423,27.423,0,1,0,3.765,30.807,27.154,27.154,0,0,0,8.4,46.04c0,.038-3.423,10.113-4.11,12.131l-.019.059.43-.158c7.6-2.776,11.648-4.244,11.716-4.244Zm12.06-9.479a2.708,2.708,0,1,1,2.709,2.708A2.708,2.708,0,0,1,28.479,44.348Zm1.016-6.771V36.59a11.721,11.721,0,0,1,3.155-8.1,19.566,19.566,0,0,1,1.412-1.421l.794-.725.16-.155a5.421,5.421,0,1,0-9.242-4.046l0,.208H22.385a8.8,8.8,0,1,1,15.2,6.052l-.166.171-.3.277c-.515.478-1.541,1.446-1.934,1.888a8.381,8.381,0,0,0-2.3,5.58l0,.269v.987Z" stroke="none"/>
    <path d="M 1.210327127409982e-06 62.71443939208984 L 0.0012212103465572 62.71382904052734 C 0.01706121116876602 62.70772933959961 0.1109112128615379 62.67361068725586 0.2723912000656128 62.61632919311523 C 4.790301322937012 60.99174118041992 15.31359100341797 57.2136116027832 15.44522094726562 57.2136116027832 C 17.84981155395508 58.62004852294922 20.38238143920898 59.70899963378906 22.97222137451172 60.44878005981445 C 25.67358207702637 61.22208023071289 28.43770027160645 61.61328887939453 31.18781089782715 61.61328887939453 C 35.34619140625 61.61328887939453 39.380859375 60.79856109619141 43.17909240722656 59.1928596496582 C 46.84814071655273 57.64078140258789 50.14303207397461 55.41899871826172 52.97175216674805 52.59027862548828 C 55.80047225952148 49.76155853271484 58.02164077758789 46.46728134155273 59.57372283935547 42.7976188659668 C 61.18003082275391 39 61.9947624206543 34.96593856811523 61.9947624206543 30.80694961547852 C 61.9947624206543 26.64735984802246 61.18003082275391 22.61330032348633 59.57372283935547 18.81567001342773 C 58.02164077758789 15.14601993560791 55.80047225952148 11.85173988342285 52.97175216674805 9.023019790649414 C 50.14303207397461 6.194299697875977 46.84814071655273 3.972519636154175 43.17909240722656 2.42104959487915 C 39.380859375 0.8147397041320801 35.34619140625 -3.039550904304633e-07 31.18781089782715 -3.039550904304633e-07 C 27.02944183349609 -3.039550904304633e-07 22.99477195739746 0.8147397041320801 19.19653129577637 2.42104959487915 C 15.52748107910156 3.972519636154175 12.23259162902832 6.194299697875977 9.403881072998047 9.023019790649414 C 6.575160980224609 11.85173988342285 4.353981018066406 15.14601993560791 2.801911115646362 18.81567001342773 C 1.19559121131897 22.61330032348633 0.380861222743988 26.64735984802246 0.380861222743988 30.80694961547852 C 0.380861222743988 33.7398681640625 0.8183912038803101 36.69717025756836 1.68126118183136 39.59841156005859 C 2.503921270370483 42.36191940307617 3.674531221389771 44.95663833618164 5.162021160125732 47.31003952026367 L 1.210327127409982e-06 62.71443939208984 M 16.41839027404785 53.82730865478516 C 16.35075187683105 53.82730865478516 12.29962158203125 55.2946891784668 4.702551364898682 58.07099914550781 C 4.439301013946533 58.16788864135742 4.285121440887451 58.22394943237305 4.272941112518311 58.22943878173828 L 4.292441368103027 58.17094039916992 C 4.978591442108154 56.15208053588867 8.401451110839844 46.07788848876953 8.402061462402344 46.03950119018555 C 5.325331211090088 41.39606094360352 3.765331268310547 36.27000045776367 3.765331268310547 30.80694961547852 C 3.765331268310547 15.68591976165771 16.06678199768066 3.383859634399414 31.18781089782715 3.383859634399414 C 46.30823135375977 3.383859634399414 58.61030197143555 15.68591976165771 58.61030197143555 30.80694961547852 C 58.61030197143555 45.9273681640625 46.30823135375977 58.22943878173828 31.18781089782715 58.22943878173828 C 26.21410179138184 58.22943878173828 20.83087158203125 56.62495040893555 16.41961097717285 53.82730865478516 L 16.41839027404785 53.82730865478516 M 31.18781089782715 47.05654907226562 C 32.68321228027344 47.05654907226562 33.89587020874023 45.84328079223633 33.89587020874023 44.34848022460938 C 33.89587020874023 42.85186004638672 32.68321228027344 41.63980865478516 31.18781089782715 41.63980865478516 C 29.69180107116699 41.63980865478516 28.47914123535156 42.85186004638672 28.47914123535156 44.34848022460938 C 28.47914123535156 45.84328079223633 29.69180107116699 47.05654907226562 31.18781089782715 47.05654907226562 M 32.88005065917969 37.57711029052734 L 32.88005065917969 36.58992004394531 L 32.88370132446289 36.32118988037109 C 32.94403076171875 34.10184860229492 33.75267028808594 32.34622955322266 35.1804313659668 30.74114036560059 C 35.57349014282227 30.29874038696289 36.59967041015625 29.33044052124023 37.11458969116211 28.85268974304199 L 37.41867065429688 28.57542037963867 L 37.58502960205078 28.40419006347656 C 39.11639022827148 26.78264045715332 39.98962020874023 24.63459014892578 39.98962020874023 22.35248947143555 C 39.98962020874023 17.48723983764648 36.04880142211914 13.54091930389404 31.18781089782715 13.54091930389404 C 28.82222175598145 13.54091930389404 26.60227203369141 14.4811897277832 24.96305084228516 16.12285041809082 C 23.32444190979004 17.76267051696777 22.38539123535156 19.98505973815918 22.38539123535156 22.35248947143555 L 25.77108192443848 22.35248947143555 L 25.77473068237305 22.14407920837402 C 25.82653045654297 20.76202011108398 26.39569091796875 19.47867012023926 27.35789108276367 18.51585960388184 C 28.36945152282715 17.50308036804199 29.73019027709961 16.92600059509277 31.18781089782715 16.92600059509277 C 34.17802047729492 16.92600059509277 36.60393142700195 19.3555793762207 36.60393142700195 22.35248947143555 C 36.60393142700195 23.81315994262695 36.02746200561523 25.17754936218262 35.01651000976562 26.19033050537109 L 34.85625076293945 26.3451099395752 L 34.06223297119141 27.07027053833008 C 33.52293014526367 27.56752014160156 33.08358001708984 28.00382995605469 32.65031051635742 28.49132919311523 C 30.65156173706055 30.73930931091309 29.49497032165527 33.33768844604492 29.49497032165527 36.58992004394531 L 29.49497032165527 37.57711029052734 L 32.88005065917969 37.57711029052734 M 0.0005561712896451354 63.71396255493164 C -0.1823249906301498 63.71396255493164 -0.364644855260849 63.66396331787109 -0.5251187682151794 63.56478881835938 C -0.8199387788772583 63.3825798034668 -0.9999988079071045 63.06101989746094 -0.9999988079071045 62.71443939208984 L -0.9999988079071045 62.71260833740234 C -0.9999988079071045 62.60435104370117 -0.9824187755584717 62.49679946899414 -0.9479488134384155 62.39418029785156 L -0.4994487762451172 61.05904006958008 L 4.064449310302734 47.43815612792969 C 2.648386716842651 45.11769104003906 1.525072574615479 42.57864379882812 0.7228311896324158 39.88372039794922 C -0.1676587909460068 36.88962936401367 -0.619138777256012 33.83583831787109 -0.619138777256012 30.80694961547852 C -0.619138777256012 26.51358985900879 0.2220012098550797 22.34807014465332 1.880911231040955 18.42610931396484 C 3.483091115951538 14.63796997070312 5.776281356811523 11.23639965057373 8.696771621704102 8.315909385681152 C 11.61786079406738 5.394809722900391 15.0194616317749 3.101609706878662 18.80706214904785 1.500009655952454 C 22.72961044311523 -0.1588703095912933 26.89511108398438 -1.000000357627869 31.18781089782715 -1.000000357627869 C 35.48052978515625 -1.000000357627869 39.64602279663086 -0.1588703095912933 43.56859970092773 1.500029683113098 C 47.35616302490234 3.101609706878662 50.75775146484375 5.394809722900391 53.67885971069336 8.315909385681152 C 56.59933090209961 11.23637962341309 58.89252090454102 14.63794994354248 60.49473190307617 18.4261302947998 C 62.15363311767578 22.34807968139648 62.9947624206543 26.51359939575195 62.9947624206543 30.80694961547852 C 62.9947624206543 35.09991073608398 62.15363311767578 39.26522064208984 60.49472045898438 43.18717956542969 C 58.89252090454102 46.97533798217773 56.59933090209961 50.37691116333008 53.67885971069336 53.29738998413086 C 50.75814056396484 56.21810150146484 47.35659027099609 58.51148986816406 43.56869125366211 60.11384963989258 C 39.64546966552734 61.77238845825195 35.48001098632812 62.61328887939453 31.18781089782715 62.61328887939453 C 28.34255027770996 62.61328887939453 25.48583030700684 62.20849990844727 22.69701194763184 61.41016006469727 C 20.16833114624023 60.6878547668457 17.69240379333496 59.64297485351562 15.33097362518311 58.30194473266602 C 13.88049602508545 58.7999382019043 8.455142021179199 60.73658752441406 0.6107712388038635 63.55733871459961 C 0.4700617790222168 63.60725784301758 0.3848573267459869 63.63803482055664 0.3586637377738953 63.64777755737305 C 0.2432360500097275 63.69198226928711 0.1217728704214096 63.71396255493164 0.0005561712896451354 63.71396255493164 Z M 16.41839027404785 52.82730865478516 L 16.41961097717285 52.82730865478516 C 16.60927200317383 52.82730865478516 16.79502105712891 52.88124847412109 16.95519065856934 52.98281860351562 C 21.2105712890625 55.68161010742188 26.39816093444824 57.22943878173828 31.18781089782715 57.22943878173828 C 45.75722122192383 57.22943878173828 57.61030197143555 45.37635803222656 57.61030197143555 30.80694961547852 C 57.61030197143555 16.23720932006836 45.75722122192383 4.383859634399414 31.18781089782715 4.383859634399414 C 16.61841201782227 4.383859634399414 4.765331268310547 16.23720932006836 4.765331268310547 30.80694961547852 C 4.765331268310547 36.07123947143555 6.269371032714844 41.01036834716797 9.235671043395996 45.48714828491211 C 9.34718132019043 45.65544128417969 9.40514087677002 45.85353851318359 9.401930809020996 46.05538940429688 C 9.399361610412598 46.21746063232422 9.399361610412598 46.21746063232422 9.201491355895996 46.80712127685547 C 9.106330871582031 47.0906982421875 8.969660758972168 47.49596786499023 8.803521156311035 47.98751831054688 C 8.471721649169922 48.96920013427734 8.022241592407227 50.29553985595703 7.551331043243408 51.68378067016602 C 6.970565319061279 53.3958625793457 6.357236385345459 55.2020149230957 5.891907691955566 56.57186126708984 C 8.938244819641113 55.45937347412109 11.33904266357422 54.58518218994141 13.04344081878662 53.96781921386719 C 16.1921215057373 52.82730865478516 16.1921215057373 52.82730865478516 16.41839027404785 52.82730865478516 Z M 31.18781089782715 48.05654907226562 C 29.14284133911133 48.05654907226562 27.47914123535156 46.39311981201172 27.47914123535156 44.34848022460938 C 27.47914123535156 42.30350875854492 29.14284133911133 40.63980865478516 31.18781089782715 40.63980865478516 C 33.23244094848633 40.63980865478516 34.89587020874023 42.30350875854492 34.89587020874023 44.34848022460938 C 34.89587020874023 46.39311981201172 33.23244094848633 48.05654907226562 31.18781089782715 48.05654907226562 Z M 32.88005065917969 38.57711029052734 L 29.49497032165527 38.57711029052734 C 28.94269180297852 38.57711029052734 28.49497032165527 38.12939071655273 28.49497032165527 37.57711029052734 L 28.49497032165527 36.58992004394531 C 28.49497032165527 33.27248001098633 29.6097412109375 30.40605926513672 31.90299034118652 27.82686042785645 C 32.33162307739258 27.34457969665527 32.78853988647461 26.88444900512695 33.38437271118164 26.33507919311523 L 34.17152404785156 25.61617851257324 L 34.31472396850586 25.47787475585938 C 35.14615249633789 24.64184951782227 35.60393142700195 23.53225517272949 35.60393142700195 22.35248947143555 C 35.60393142700195 19.91172027587891 33.62287139892578 17.92600059509277 31.18781089782715 17.92600059509277 C 30.00939178466797 17.92600059509277 28.9005012512207 18.38644981384277 28.06542205810547 19.2225399017334 C 27.27666282653809 20.01180839538574 26.8184642791748 21.05882453918457 26.77439880371094 22.17203903198242 L 26.77093124389648 22.36999893188477 C 26.76138114929199 22.91538047790527 26.31654167175293 23.35248947143555 25.77108192443848 23.35248947143555 L 22.38539123535156 23.35248947143555 C 21.83311080932617 23.35248947143555 21.38539123535156 22.90476989746094 21.38539123535156 22.35248947143555 C 21.38539123535156 19.73172950744629 22.40475082397461 17.268310546875 24.25568199157715 15.41599941253662 C 26.10686111450195 13.5620698928833 28.5688304901123 12.54091930389404 31.18781089782715 12.54091930389404 C 36.59255218505859 12.54091930389404 40.98962020874023 16.94236946105957 40.98962020874023 22.35248947143555 C 40.98962020874023 24.86940956115723 40.03871154785156 27.26244926452637 38.31207275390625 29.09078979492188 C 38.30882263183594 29.09421920776367 38.30554962158203 29.0976390838623 38.30226135253906 29.10101890563965 L 38.13590240478516 29.27224922180176 C 38.12185287475586 29.28672027587891 38.10736083984375 29.30076026916504 38.09245300292969 29.31435012817383 L 37.79152297973633 29.5887451171875 C 37.08345794677734 30.24577903747559 36.23350524902344 31.06147575378418 35.9279899597168 31.40532875061035 C 34.58514404296875 32.91496276855469 33.93550872802734 34.4835319519043 33.88351821899414 36.3415641784668 L 33.88005065917969 36.59687423706055 L 33.88005065917969 37.57711029052734 C 33.88005065917969 38.12939071655273 33.43233108520508 38.57711029052734 32.88005065917969 38.57711029052734 Z" stroke="none" fill="rgba(0,0,0,0)"/>
  </g>
</svg>
