<svg id="Icon_Regular_Communication_Call" data-name="Icon / Regular / Communication / Call" xmlns="http://www.w3.org/2000/svg" width="65" height="65" viewBox="0 0 65 65">
  <rect id="Container" width="65" height="65" fill="rgba(255,255,255,0)"/>
  <path id="Subtraction" d="M46.789,56.207a2.6,2.6,0,0,1-.278-.019h-.016A52.424,52.424,0,0,1,.02,9.712C-.068,8.9-.216,7.532,7.941.817A3.855,3.855,0,0,1,10.217,0H15.8a2.479,2.479,0,0,1,2.42,2.052L21.607,17a2.846,2.846,0,0,1-.692,2.756L17.58,23.09A42.885,42.885,0,0,0,33.117,38.626l3.332-3.334a2.877,2.877,0,0,1,2-.8,2.674,2.674,0,0,1,.76.107l14.947,3.382A2.478,2.478,0,0,1,56.207,40.4l0,5.587a3.85,3.85,0,0,1-.816,2.276C49.6,55.3,47.751,56.207,46.789,56.207ZM15.055,3.385l-4.838,0-.013,0L10.19,3.4a1.023,1.023,0,0,0-.133.06A51.518,51.518,0,0,0,3.426,9.715,49.118,49.118,0,0,0,17.462,38.743,49.146,49.146,0,0,0,46.491,52.781a51.741,51.741,0,0,0,6.284-6.667.371.371,0,0,1,.012-.04,1.034,1.034,0,0,0,.035-.131l0-4.791L38.6,37.932,35.08,41.447a2.622,2.622,0,0,1-1.851.751A2.561,2.561,0,0,1,32,41.888l-.008,0c-.083-.046-.227-.128-.427-.245A46.249,46.249,0,0,1,14.615,24.727c-.218-.376-.294-.515-.295-.516a2.639,2.639,0,0,1,.438-3.086l3.516-3.518L15.055,3.385Z" transform="translate(4.647 4.655)" stroke="rgba(0,0,0,0)" stroke-width="1"/>
</svg>
